<svg id="visual" viewBox="0 0 900 600" width="900" height="600" xmlns="http://www.w3.org/2000/svg" xmlns:xlink="http://www.w3.org/1999/xlink" version="1.1"><g transform="translate(488.6124007592359 278.6949496206703)"><path d="M219.9 -300.1C295.2 -247.9 373.5 -197.4 396.4 -128.4C419.4 -59.4 387.1 27.9 343.9 96.6C300.8 165.3 246.8 215.4 187.7 281.2C128.6 347 64.3 428.5 -10.6 443C-85.4 457.6 -170.8 405.2 -254.1 347.2C-337.3 289.2 -418.3 225.7 -456.3 140.7C-494.2 55.7 -489.2 -50.8 -439.5 -124.1C-389.9 -197.4 -295.8 -237.4 -215.1 -287.9C-134.4 -338.3 -67.2 -399.2 2.5 -402.7C72.3 -406.2 144.6 -352.4 219.9 -300.1" fill="#6B4B5E"></path></g></svg>