<svg id="visual" viewBox="0 0 900 600" width="900" height="600" xmlns="http://www.w3.org/2000/svg" xmlns:xlink="http://www.w3.org/1999/xlink" version="1.1"><path d="M0 49L30 49C60 49 120 49 180 51C240 53 300 57 360 57C420 57 480 53 540 52C600 51 660 53 720 51C780 49 840 43 870 40L900 37L900 0L870 0C840 0 780 0 720 0C660 0 600 0 540 0C480 0 420 0 360 0C300 0 240 0 180 0C120 0 60 0 30 0L0 0Z" fill="#805970"></path><path d="M0 115L30 123C60 131 120 147 180 153C240 159 300 155 360 152C420 149 480 147 540 141C600 135 660 125 720 125C780 125 840 135 870 140L900 145L900 35L870 38C840 41 780 47 720 49C660 51 600 49 540 50C480 51 420 55 360 55C300 55 240 51 180 49C120 47 60 47 30 47L0 47Z" fill="#a58c9a"></path><path d="M0 235L30 239C60 243 120 251 180 258C240 265 300 271 360 273C420 275 480 273 540 269C600 265 660 259 720 262C780 265 840 277 870 283L900 289L900 143L870 138C840 133 780 123 720 123C660 123 600 133 540 139C480 145 420 147 360 150C300 153 240 157 180 151C120 145 60 129 30 121L0 113Z" fill="#cac3c7"></path><path d="M0 421L30 422C60 423 120 425 180 424C240 423 300 419 360 412C420 405 480 395 540 402C600 409 660 433 720 440C780 447 840 437 870 432L900 427L900 287L870 281C840 275 780 263 720 260C660 257 600 263 540 267C480 271 420 273 360 271C300 269 240 263 180 256C120 249 60 241 30 237L0 233Z" fill="#d9d9d9"></path><path d="M0 499L30 500C60 501 120 503 180 499C240 495 300 485 360 477C420 469 480 463 540 472C600 481 660 505 720 511C780 517 840 505 870 499L900 493L900 425L870 430C840 435 780 445 720 438C660 431 600 407 540 400C480 393 420 403 360 410C300 417 240 421 180 422C120 423 60 421 30 420L0 419Z" fill="#cac3c7"></path><path d="M0 565L30 561C60 557 120 549 180 545C240 541 300 541 360 542C420 543 480 545 540 550C600 555 660 563 720 567C780 571 840 571 870 571L900 571L900 491L870 497C840 503 780 515 720 509C660 503 600 479 540 470C480 461 420 467 360 475C300 483 240 493 180 497C120 501 60 499 30 498L0 497Z" fill="#a58c9a"></path><path d="M0 601L30 601C60 601 120 601 180 601C240 601 300 601 360 601C420 601 480 601 540 601C600 601 660 601 720 601C780 601 840 601 870 601L900 601L900 569L870 569C840 569 780 569 720 565C660 561 600 553 540 548C480 543 420 541 360 540C300 539 240 539 180 543C120 547 60 555 30 559L0 563Z" fill="#805970"></path></svg>