<svg id="visual" viewBox="0 0 900 600" width="900" height="600" xmlns="http://www.w3.org/2000/svg" xmlns:xlink="http://www.w3.org/1999/xlink" version="1.1"><path d="M0 79L30 76C60 73 120 67 180 73C240 79 300 97 360 103C420 109 480 103 540 92C600 81 660 65 720 62C780 59 840 69 870 74L900 79L900 0L870 0C840 0 780 0 720 0C660 0 600 0 540 0C480 0 420 0 360 0C300 0 240 0 180 0C120 0 60 0 30 0L0 0Z" fill="#9885be"></path><path d="M0 109L30 107C60 105 120 101 180 110C240 119 300 141 360 146C420 151 480 139 540 125C600 111 660 95 720 89C780 83 840 87 870 89L900 91L900 77L870 72C840 67 780 57 720 60C660 63 600 79 540 90C480 101 420 107 360 101C300 95 240 77 180 71C120 65 60 71 30 74L0 77Z" fill="#b1a1d2"></path><path d="M0 301L30 290C60 279 120 257 180 253C240 249 300 263 360 270C420 277 480 277 540 260C600 243 660 209 720 194C780 179 840 183 870 185L900 187L900 89L870 87C840 85 780 81 720 87C660 93 600 109 540 123C480 137 420 149 360 144C300 139 240 117 180 108C120 99 60 103 30 105L0 107Z" fill="#c4b7df"></path><path d="M0 379L30 368C60 357 120 335 180 329C240 323 300 333 360 334C420 335 480 327 540 309C600 291 660 263 720 257C780 251 840 267 870 275L900 283L900 185L870 183C840 181 780 177 720 192C660 207 600 241 540 258C480 275 420 275 360 268C300 261 240 247 180 251C120 255 60 277 30 288L0 299Z" fill="#d0c6e6"></path><path d="M0 427L30 423C60 419 120 411 180 413C240 415 300 427 360 434C420 441 480 443 540 442C600 441 660 437 720 438C780 439 840 445 870 448L900 451L900 281L870 273C840 265 780 249 720 255C660 261 600 289 540 307C480 325 420 333 360 332C300 331 240 321 180 327C120 333 60 355 30 366L0 377Z" fill="#d0c6e6"></path><path d="M0 487L30 485C60 483 120 479 180 477C240 475 300 475 360 481C420 487 480 499 540 502C600 505 660 499 720 493C780 487 840 481 870 478L900 475L900 449L870 446C840 443 780 437 720 436C660 435 600 439 540 440C480 441 420 439 360 432C300 425 240 413 180 411C120 409 60 417 30 421L0 425Z" fill="#c4b7df"></path><path d="M0 547L30 545C60 543 120 539 180 537C240 535 300 535 360 538C420 541 480 547 540 548C600 549 660 545 720 541C780 537 840 533 870 531L900 529L900 473L870 476C840 479 780 485 720 491C660 497 600 503 540 500C480 497 420 485 360 479C300 473 240 473 180 475C120 477 60 481 30 483L0 485Z" fill="#b1a1d2"></path><path d="M0 601L30 601C60 601 120 601 180 601C240 601 300 601 360 601C420 601 480 601 540 601C600 601 660 601 720 601C780 601 840 601 870 601L900 601L900 527L870 529C840 531 780 535 720 539C660 543 600 547 540 546C480 545 420 539 360 536C300 533 240 533 180 535C120 537 60 541 30 543L0 545Z" fill="#9885be"></path></svg>