<svg id="visual" viewBox="0 0 900 600" width="900" height="600" xmlns="http://www.w3.org/2000/svg" xmlns:xlink="http://www.w3.org/1999/xlink" version="1.1"><path d="M0 542L30 535C60 528 120 514 180 512.7C240 511.3 300 522.7 360 531C420 539.3 480 544.7 540 534.5C600 524.3 660 498.7 720 494.5C780 490.3 840 507.7 870 516.3L900 525L900 601L870 601C840 601 780 601 720 601C660 601 600 601 540 601C480 601 420 601 360 601C300 601 240 601 180 601C120 601 60 601 30 601L0 601Z" fill="#E0D069" stroke-linecap="round" stroke-linejoin="miter"></path></svg>