<svg id="visual" viewBox="0 0 900 600" width="900" height="600" xmlns="http://www.w3.org/2000/svg" xmlns:xlink="http://www.w3.org/1999/xlink" version="1.1"><path d="M0 496L30 492.3C60 488.7 120 481.3 180 490.7C240 500 300 526 360 535C420 544 480 536 540 522.7C600 509.3 660 490.7 720 481.2C780 471.7 840 471.3 870 471.2L900 471L900 601L870 601C840 601 780 601 720 601C660 601 600 601 540 601C480 601 420 601 360 601C300 601 240 601 180 601C120 601 60 601 30 601L0 601Z" fill="#FFE957" stroke-linecap="round" stroke-linejoin="miter"></path></svg>